<svg width="182" height="36" viewBox="0 0 182 36" fill="none" xmlns="http://www.w3.org/2000/svg">
<path d="M11.7187 2.01715C15.2407 2.01715 18.3305 2.70555 20.988 4.08233C23.6775 5.45912 25.7427 7.42825 27.1835 9.98971C28.6564 12.5192 29.3928 15.4648 29.3928 18.8268C29.3928 22.1887 28.6564 25.1344 27.1835 27.6638C25.7427 30.1612 23.6775 32.0984 20.988 33.4751C18.3305 34.8519 15.2407 35.5403 11.7187 35.5403H0V2.01715H11.7187ZM11.4786 29.8251C15.0006 29.8251 17.7221 28.8645 19.6432 26.9434C21.5643 25.0223 22.5249 22.3168 22.5249 18.8268C22.5249 15.3368 21.5643 12.6152 19.6432 10.6621C17.7221 8.67696 15.0006 7.68439 11.4786 7.68439H6.72384V29.8251H11.4786Z" fill="#242424"/>
<path d="M46.2407 35.9726C43.6792 35.9726 41.3739 35.4122 39.3247 34.2916C37.2756 33.1389 35.6586 31.522 34.474 29.4408C33.3213 27.3596 32.745 24.9583 32.745 22.2367C32.745 19.5152 33.3373 17.1138 34.522 15.0326C35.7387 12.9514 37.3876 11.3505 39.4688 10.2298C41.55 9.07719 43.8713 8.50086 46.4328 8.50086C48.9943 8.50086 51.3156 9.07719 53.3968 10.2298C55.478 11.3505 57.1109 12.9514 58.2956 15.0326C59.5123 17.1138 60.1206 19.5152 60.1206 22.2367C60.1206 24.9583 59.4963 27.3596 58.2476 29.4408C57.0309 31.522 55.3659 33.1389 53.2527 34.2916C51.1715 35.4122 48.8342 35.9726 46.2407 35.9726ZM46.2407 30.1132C47.4574 30.1132 48.594 29.8251 49.6506 29.2487C50.7393 28.6404 51.6038 27.7439 52.2441 26.5592C52.8845 25.3745 53.2047 23.9337 53.2047 22.2367C53.2047 19.7073 52.5323 17.7702 51.1875 16.4254C49.8748 15.0486 48.2578 14.3602 46.3367 14.3602C44.4156 14.3602 42.7987 15.0486 41.486 16.4254C40.2052 17.7702 39.5649 19.7073 39.5649 22.2367C39.5649 24.7662 40.1892 26.7193 41.4379 28.0961C42.7187 29.4408 44.3196 30.1132 46.2407 30.1132Z" fill="#242424"/>
<path d="M63.3238 22.2367C63.3238 19.4831 63.8842 17.0818 65.0048 15.0326C66.1254 12.9514 67.6783 11.3505 69.6635 10.2298C71.6486 9.07719 73.9219 8.50086 76.4834 8.50086C79.7812 8.50086 82.5028 9.33334 84.648 10.9983C86.8253 12.6312 88.2821 14.9365 89.0185 17.9142H81.7664C81.3822 16.7616 80.7258 15.8651 79.7973 15.2247C78.9007 14.5523 77.7801 14.2161 76.4353 14.2161C74.5142 14.2161 72.9934 14.9205 71.8727 16.3293C70.7521 17.7061 70.1918 19.6752 70.1918 22.2367C70.1918 24.7662 70.7521 26.7353 71.8727 28.1441C72.9934 29.5209 74.5142 30.2093 76.4353 30.2093C79.1569 30.2093 80.9339 28.9926 81.7664 26.5592H89.0185C88.2821 29.4408 86.8253 31.7301 84.648 33.4271C82.4708 35.1241 79.7492 35.9726 76.4834 35.9726C73.9219 35.9726 71.6486 35.4122 69.6635 34.2916C67.6783 33.1389 66.1254 31.538 65.0048 29.4889C63.8842 27.4077 63.3238 24.9903 63.3238 22.2367Z" fill="#242424"/>
<path d="M92.2153 22.1407C92.2153 19.4511 92.7437 17.0658 93.8003 14.9846C94.8889 12.9034 96.3617 11.3025 98.2188 10.1818C100.076 9.06118 102.141 8.50086 104.414 8.50086C106.143 8.50086 107.792 8.88508 109.361 9.65352C110.93 10.3899 112.179 11.3825 113.107 12.6312V0H119.927V35.5403H113.107V31.6021C112.275 32.9148 111.106 33.9714 109.601 34.7719C108.096 35.5723 106.351 35.9726 104.366 35.9726C102.125 35.9726 100.076 35.3962 98.2188 34.2436C96.3617 33.0909 94.8889 31.474 93.8003 29.3928C92.7437 27.2796 92.2153 24.8622 92.2153 22.1407ZM113.155 22.2367C113.155 20.6038 112.835 19.211 112.195 18.0583C111.554 16.8736 110.69 15.9771 109.601 15.3688C108.513 14.7284 107.344 14.4082 106.095 14.4082C104.847 14.4082 103.694 14.7124 102.637 15.3208C101.581 15.9291 100.716 16.8256 100.044 18.0103C99.4035 19.163 99.0833 20.5397 99.0833 22.1407C99.0833 23.7416 99.4035 25.1504 100.044 26.3671C100.716 27.5518 101.581 28.4643 102.637 29.1046C103.726 29.745 104.879 30.0652 106.095 30.0652C107.344 30.0652 108.513 29.761 109.601 29.1527C110.69 28.5123 111.554 27.6158 112.195 26.4631C112.835 25.2785 113.155 23.8696 113.155 22.2367Z" fill="#242424"/>
<path d="M138.309 35.9726C135.747 35.9726 133.442 35.4122 131.393 34.2916C129.344 33.1389 127.727 31.522 126.542 29.4408C125.39 27.3596 124.813 24.9583 124.813 22.2367C124.813 19.5152 125.406 17.1138 126.59 15.0326C127.807 12.9514 129.456 11.3505 131.537 10.2298C133.618 9.07719 135.94 8.50086 138.501 8.50086C141.063 8.50086 143.384 9.07719 145.465 10.2298C147.546 11.3505 149.179 12.9514 150.364 15.0326C151.581 17.1138 152.189 19.5152 152.189 22.2367C152.189 24.9583 151.565 27.3596 150.316 29.4408C149.099 31.522 147.434 33.1389 145.321 34.2916C143.24 35.4122 140.902 35.9726 138.309 35.9726ZM138.309 30.1132C139.526 30.1132 140.662 29.8251 141.719 29.2487C142.808 28.6404 143.672 27.7439 144.312 26.5592C144.953 25.3745 145.273 23.9337 145.273 22.2367C145.273 19.7073 144.601 17.7702 143.256 16.4254C141.943 15.0486 140.326 14.3602 138.405 14.3602C136.484 14.3602 134.867 15.0486 133.554 16.4254C132.273 17.7702 131.633 19.7073 131.633 22.2367C131.633 24.7662 132.257 26.7193 133.506 28.0961C134.787 29.4408 136.388 30.1132 138.309 30.1132Z" fill="#242424"/>
<path d="M155.392 22.2367C155.392 19.4831 155.952 17.0818 157.073 15.0326C158.194 12.9514 159.747 11.3505 161.732 10.2298C163.717 9.07719 165.99 8.50086 168.552 8.50086C171.85 8.50086 174.571 9.33334 176.716 10.9983C178.894 12.6312 180.35 14.9365 181.087 17.9142H173.835C173.45 16.7616 172.794 15.8651 171.866 15.2247C170.969 14.5523 169.848 14.2161 168.504 14.2161C166.582 14.2161 165.062 14.9205 163.941 16.3293C162.82 17.7061 162.26 19.6752 162.26 22.2367C162.26 24.7662 162.82 26.7353 163.941 28.1441C165.062 29.5209 166.582 30.2093 168.504 30.2093C171.225 30.2093 173.002 28.9926 173.835 26.5592H181.087C180.35 29.4408 178.894 31.7301 176.716 33.4271C174.539 35.1241 171.817 35.9726 168.552 35.9726C165.99 35.9726 163.717 35.4122 161.732 34.2916C159.747 33.1389 158.194 31.538 157.073 29.4889C155.952 27.4077 155.392 24.9903 155.392 22.2367Z" fill="#242424"/>
</svg>
